<svg xmlns="http://www.w3.org/2000/svg" width="25" height="25" viewBox="0 0 41 41" fill="none">
<path d="M10.6646 7.29684H19.6646H29.1646V4.29684H19.6646H10.6646V7.29684ZM32.6646 11.7968V30.0631C32.1282 30.2478 31.6186 30.5394 31.1681 30.9398C29.2664 32.6301 29.18 35.5725 30.979 37.3716L32.0397 36.3109L30.9791 37.3716L31.2291 37.6216C32.9519 39.3444 35.7451 39.3444 37.4679 37.6216C39.1196 35.9699 39.1975 33.3171 37.6457 31.5713L37.4108 31.307C36.9172 30.7517 36.315 30.3501 35.6646 30.1058V11.7968H32.6646ZM29.1646 32.7968H11.1646V35.7968H29.1646V32.7968ZM7.66461 29.2968V11.2968H4.66461V29.2968H7.66461ZM2.9127 36.8647L2.91271 36.8647L3.16271 37.1147C4.88552 38.8375 7.67875 38.8375 9.40157 37.1147C11.0532 35.463 11.1312 32.8102 9.57937 31.0644L9.34448 30.8001L8.22336 31.7967L9.34448 30.8001C7.72199 28.9748 4.92701 28.8104 3.10171 30.4329C1.20011 32.1232 1.11364 35.0656 2.9127 36.8647ZM37.4108 3.03606L37.4108 3.03605C35.7883 1.21076 32.9933 1.04635 31.168 2.66883C29.2664 4.35914 29.18 7.30154 30.979 9.10061L31.229 9.35061C32.9518 11.0734 35.7451 11.0734 37.4679 9.35061C39.1196 7.69894 39.1975 5.04611 37.6457 3.30031L37.4108 3.03606ZM9.22694 2.98419C7.60445 1.15889 4.80947 0.994484 2.98417 2.61697C1.08257 4.30728 0.996099 7.24968 2.79516 9.04874L3.04516 9.29874C4.76798 11.0216 7.56121 11.0216 9.28403 9.29874C10.9357 7.64708 11.0137 4.99425 9.46183 3.24844L8.34071 4.24499L9.46183 3.24844L9.22694 2.98419Z" stroke="#024751" stroke-width="3"/>
</svg>