<svg xmlns="http://www.w3.org/2000/svg" width="24" height="32" viewBox="0 0 24 32" fill="none">
<path d="M12 0.166656C5.87251 0.166656 0.916672 5.12249 0.916672 11.25C0.916672 19.5625 12 31.8333 12 31.8333C12 31.8333 23.0833 19.5625 23.0833 11.25C23.0833 5.12249 18.1275 0.166656 12 0.166656ZM12 15.2083C10.9502 15.2083 9.94337 14.7913 9.20104 14.049C8.45871 13.3066 8.04167 12.2998 8.04167 11.25C8.04167 10.2002 8.45871 9.19336 9.20104 8.45103C9.94337 7.70869 10.9502 7.29166 12 7.29166C13.0498 7.29166 14.0566 7.70869 14.799 8.45103C15.5413 9.19336 15.9583 10.2002 15.9583 11.25C15.9583 12.2998 15.5413 13.3066 14.799 14.049C14.0566 14.7913 13.0498 15.2083 12 15.2083Z" fill="#024751"/>
</svg>