<svg xmlns="http://www.w3.org/2000/svg" viewBox="0 0 48 47" fill="none">
<path fill-rule="evenodd" clip-rule="evenodd" d="M0.5 19.2V26.9081C0.5 27.5886 0.84604 28.2225 1.41848 28.5905L5.77626 31.3919C6.85854 32.0876 7.54008 33.2615 7.6077 34.5464L7.94042 40.868C7.97738 41.5702 8.3804 42.2014 9.00188 42.5304L15.4466 45.9423C16.0956 46.2859 16.8807 46.2462 17.4918 45.8388L21.7028 43.0314C23.0856 42.1096 24.8943 42.1388 26.2466 43.1047L29.9235 45.7311C30.5762 46.1973 31.4444 46.2284 32.1288 45.8101L39.0429 41.5849C39.6374 41.2216 40 40.5751 40 39.8783V35.2648C40 33.8597 40.7372 32.5577 41.942 31.8348L46.529 29.0826C47.1314 28.7212 47.5 28.0701 47.5 27.3676V19.2C47.5 18.4614 47.0929 17.7829 46.4412 17.4353L42.1176 15.1294C40.8142 14.4342 40 13.0772 40 11.6V6.62167C40 5.92494 39.6374 5.27842 39.0429 4.91511L32.0698 0.653763C31.4156 0.253952 30.5903 0.263355 29.9454 0.67797L26.2453 3.05661C24.8859 3.93052 23.1341 3.90055 21.8054 2.98066L18.4502 0.657814C17.8623 0.250802 17.1018 0.188622 16.4556 0.494723L9.14383 3.95819C8.44533 4.28905 8 4.99277 8 5.76566V11.6C8 13.0772 7.18581 14.4342 5.88235 15.1294L1.55882 17.4353C0.907096 17.7829 0.5 18.4614 0.5 19.2ZM25.2509 15.4644C20.6869 14.6815 16.449 18.0221 16.1446 22.6428L16.1127 23.126C15.791 28.0093 19.9669 31.9935 24.8297 31.4427V31.4427C29.1768 30.9503 32.2826 26.9993 31.7346 22.6588L31.6739 22.1783C31.2437 18.7707 28.6361 16.045 25.2509 15.4644V15.4644Z" fill="white"/>
</svg>