<svg xmlns="http://www.w3.org/2000/svg" width="25" height="25" viewBox="0 0 38 38" fill="none">
<path fill-rule="evenodd" clip-rule="evenodd" d="M20.9 38H17.1V29.8838C15.5686 29.5545 14.2253 28.8373 13.2259 27.8667C12.0821 28.2736 10.8224 28.5 9.5 28.5C4.256 28.5 0 24.9533 0 20.5833C0 18.3318 1.1305 16.2973 2.945 14.8564C2.2838 13.9951 1.9 12.9722 1.9 11.875C1.9 8.9015 4.7177 6.47108 8.2479 6.33967C9.8116 2.64733 14.0372 0 19 0C23.9628 0 28.1884 2.64733 29.7521 6.33967C33.2823 6.47108 36.1 8.9015 36.1 11.875C36.1 12.9722 35.7162 13.9951 35.055 14.8564C36.8695 16.2973 38 18.3318 38 20.5833C38 24.9533 33.744 28.5 28.5 28.5C27.1776 28.5 25.9179 28.2736 24.7741 27.8667C23.7747 28.8373 22.4314 29.5545 20.9 29.8838V38Z" fill="#024751"/>
</svg>